<?xml version="1.0" standalone="no"?>
<!DOCTYPE svg PUBLIC "-//W3C//DTD SVG 20010904//EN"
 "http://www.w3.org/TR/2001/REC-SVG-20010904/DTD/svg10.dtd">
<svg version="1.0" xmlns="http://www.w3.org/2000/svg"
 width="512.000000pt" height="512.000000pt" viewBox="0 0 512.000000 512.000000"
 preserveAspectRatio="xMidYMid meet">
<metadata>
Created by potrace 1.14, written by Peter Selinger 2001-2017
</metadata>
<g transform="translate(0.000000,512.000000) scale(0.100000,-0.100000)"
fill="#000000" stroke="none">
<path d="M2529 5016 c-2 -2 -40 -6 -85 -10 -45 -3 -105 -11 -135 -16 -30 -6
-70 -13 -89 -16 -79 -12 -280 -68 -384 -106 -351 -129 -673 -334 -925 -588
-99 -99 -221 -239 -221 -252 0 -5 -4 -8 -8 -8 -5 0 -8 132 -7 293 0 160 -3
314 -8 341 -12 68 -47 134 -99 184 -167 163 -431 115 -535 -96 l-28 -57 0
-610 0 -610 28 -80 c16 -44 40 -100 54 -125 102 -177 283 -303 488 -336 74
-12 1126 -11 1175 2 72 18 115 40 159 80 203 183 122 504 -144 573 -23 6 -151
11 -298 11 l-258 0 18 32 c33 59 284 301 387 373 114 81 115 81 267 157 158
79 350 143 484 163 23 3 51 7 64 10 134 26 463 23 569 -4 20 -5 55 -12 77 -16
56 -8 175 -42 270 -77 91 -33 268 -117 273 -130 2 -4 8 -8 13 -8 12 0 74 -40
166 -107 95 -69 102 -75 192 -163 203 -197 349 -423 452 -696 22 -59 50 -122
61 -138 148 -220 472 -196 586 44 21 45 26 70 27 135 0 70 -5 94 -44 200 -25
66 -79 188 -120 270 -128 254 -262 438 -470 645 -395 394 -905 647 -1446 716
-27 3 -54 9 -59 12 -10 5 -441 14 -447 8z"/>
<path d="M513 2166 c-180 -59 -270 -239 -213 -427 12 -41 38 -112 57 -159 107
-260 168 -332 310 -366 168 -39 338 60 387 225 29 99 20 161 -44 296 -20 44
-52 121 -70 170 -18 50 -43 106 -55 125 -31 49 -89 98 -144 122 -58 26 -171
33 -228 14z"/>
<path d="M4695 2164 c-111 -35 -182 -117 -230 -264 -10 -30 -43 -111 -74 -180
-54 -123 -55 -127 -56 -220 0 -85 3 -101 28 -150 107 -209 364 -257 521 -96
57 59 147 248 207 437 34 106 33 214 -3 291 -70 152 -240 230 -393 182z"/>
<path d="M1606 868 c-81 -18 -160 -76 -207 -153 -78 -126 -57 -291 50 -401 55
-56 258 -153 429 -204 181 -55 338 9 418 169 22 46 27 68 27 135 0 67 -4 90
-26 136 -45 95 -117 154 -236 195 -36 12 -119 46 -184 74 -124 56 -189 67
-271 49z"/>
<path d="M3595 865 c-27 -7 -90 -31 -139 -54 -49 -23 -123 -53 -165 -68 -120
-41 -185 -92 -230 -181 -79 -157 -13 -357 144 -437 44 -22 75 -29 134 -32 81
-5 118 4 276 67 194 76 279 128 326 197 172 250 -52 580 -346 508z"/>
</g>
</svg>
